<?xml version="1.0" encoding="utf-8"?>
<svg version="1.1" width="447" height="480" viewBox="0 0 447 480" xmlns="http://www.w3.org/2000/svg">
  <desc>Created with Fabric.js 3.6.3</desc>
  <rect x="0" y="0" width="100%" height="100%" fill="rgba(255, 255, 255, 0)"/>
  <g transform="matrix(0.63 0 0 0.63 224.77 302.31)">
    <g style="">
      <g transform="matrix(1.33 0 0 1.33 -0.59 -35.81)">
        <path style="stroke: none; stroke-width: 1; stroke-dasharray: none; stroke-linecap: butt; stroke-dashoffset: 0; stroke-linejoin: miter; stroke-miterlimit: 4; fill-rule: nonzero; opacity: 1; fill: rgb(255, 255, 255);" transform=" translate(-350, -323.69)" d="m 511.47 331.3 c 1.3633 0.80078 2.8984 1.2031 4.4297 1.2031 c 1.2891 0 2.582 -0.28516 3.7812 -0.85938 c 2.625 -1.2578 4.4492 -3.7344 4.875 -6.6094 c 0.375 -2.5469 8.4219 -62.797 -61.113 -103.61 c -20.852 -12.246 -39.66 -17.391 -55.91 -18.668 l 113.14 -66.406 c 2.4727 -1.4531 4.082 -4.0234 4.293 -6.8867 c 0.21875 -2.8633 -0.98828 -5.6484 -3.2188 -7.457 c -1.9844 -1.6094 -49.453 -38.953 -119.12 1.9492 c -29.043 17.043 -44.445 37.449 -52.629 55.656 c -8.1836 -18.207 -23.586 -38.617 -52.633 -55.664 c -69.664 -40.891 -117.14 -3.5586 -119.12 -1.9492 c -2.2305 1.8086 -3.4336 4.5938 -3.2188 7.457 c 0.21484 2.8633 1.8203 5.4336 4.293 6.8867 l 113.16 66.418 c -16.254 1.2773 -35.066 6.418 -55.922 18.66 c -69.535 40.812 -61.488 101.06 -61.113 103.61 c 0.42578 2.875 2.25 5.3516 4.875 6.6094 c 1.2031 0.57812 2.4922 0.86328 3.7852 0.86328 c 1.5352 0 3.0664 -0.40234 4.4297 -1.2031 l 110.8 -65.031 c -33.949 56.809 -54.332 128.54 -54.332 267.48 c 0 4.832 3.918 8.75 8.75 8.75 s 8.75 -3.918 8.75 -8.75 c 0 -156.5 26.16 -224.57 68.371 -283.66 c 0.69922 -0.98047 1.168 -2.0586 1.4141 -3.1641 l 17.715 -10.395 l 15.359 9.0156 c -15.871 23.531 -26.93 48.562 -34.488 78.207 h -15.871 c -4.832 0 -8.75 3.918 -8.75 8.75 s 3.918 8.75 8.75 8.75 h 11.93 c -2.7031 13.527 -4.832 28.043 -6.4844 43.75 h -14.195 c -4.832 0 -8.75 3.918 -8.75 8.75 s 3.918 8.75 8.75 8.75 h 12.586 c -1.0938 13.648 -1.9062 28.199 -2.4883 43.75 h -10.098 c -4.832 0 -8.75 3.918 -8.75 8.75 s 3.918 8.75 8.75 8.75 h 9.543 c -0.55469 21.441 -0.79297 44.547 -0.79297 70 c 0 4.832 3.918 8.75 8.75 8.75 s 8.75 -3.918 8.75 -8.75 c 0 -146.33 6.8398 -218.88 47.977 -279.34 z m -56.887 -94.781 c 40.379 23.699 50.285 54.27 52.422 71.871 l -139.72 -82.004 l 0.28125 -0.16406 c 16.051 -6.8672 46.863 -13.266 87.02 10.297 z m -43.094 -97.473 c 21.406 -12.562 40.156 -16.605 55.438 -16.605 c 13.57 0 24.398 3.1914 31.906 6.4375 l -139.48 81.863 c -0.089844 0.039063 -0.19531 0.078125 -0.28125 0.11719 c 2.1523 -17.605 12.078 -48.141 52.418 -71.812 z m -122.98 0 c 40.355 23.684 50.273 54.23 52.422 71.824 c -0.078126 -0.035157 -0.17578 -0.070313 -0.25391 -0.10547 l -139.43 -81.84 c 16.016 -6.832 47.109 -13.453 87.262 10.121 z m -43.094 97.473 c 21.41 -12.566 40.16 -16.605 55.438 -16.605 c 13.414 0 24.121 3.1211 31.613 6.3281 l 0.25 0.14453 l -139.73 82.004 c 2.1406 -17.602 12.047 -48.172 52.426 -71.871 z" stroke-linecap="round"/>
      </g>
      <g transform="matrix(1.33 0 0 1.33 -0.85 -146.58)">
        <path style="stroke: none; stroke-width: 1; stroke-dasharray: none; stroke-linecap: butt; stroke-dashoffset: 0; stroke-linejoin: miter; stroke-miterlimit: 4; fill-rule: nonzero; opacity: 1; fill: rgb(255, 255, 255);" transform=" translate(-350, -240.63)" d="m 350 17.5 c -139.92 0 -253.75 113.83 -253.75 253.75 c 0 64.035 23.922 125.19 67.363 172.19 c 3.2852 3.5508 8.8125 3.7578 12.363 0.48828 c 3.5508 -3.2812 3.7695 -8.8125 0.48828 -12.363 c -40.441 -43.758 -62.715 -100.7 -62.715 -160.32 c 0 -130.27 105.98 -236.25 236.25 -236.25 s 236.25 105.98 236.25 236.25 c 0 67.742 -29.156 132.33 -79.984 177.2 c -3.625 3.1953 -3.9688 8.7227 -0.76953 12.348 c 1.7266 1.9609 4.1406 2.9609 6.5625 2.9609 c 2.0547 0 4.1211 -0.72266 5.7852 -2.1914 c 54.594 -48.184 85.906 -117.55 85.906 -190.31 c 0 -139.92 -113.83 -253.75 -253.75 -253.75 z" stroke-linecap="round"/>
      </g>
      <g transform="matrix(1.33 0 0 1.33 -352.4 433.71)">
        <path style="stroke: none; stroke-width: 1; stroke-dasharray: none; stroke-linecap: butt; stroke-dashoffset: 0; stroke-linejoin: miter; stroke-miterlimit: 4; fill-rule: nonzero; opacity: 1; fill: rgb(255, 255, 255);" transform=" translate(-15.74, 15.92)" d="m 29.312 -1.75 c -1.5117 0.78125 -3.0898 1.3711 -4.7344 1.7656 c -1.6367 0.40625 -3.3398 0.60938 -5.1094 0.60938 c -5.3125 0 -9.5273 -1.4844 -12.641 -4.4531 c -3.1055 -2.9688 -4.6562 -7 -4.6562 -12.094 s 1.5508 -9.125 4.6562 -12.094 c 3.1133 -2.9688 7.3281 -4.4531 12.641 -4.4531 c 1.7695 0 3.4727 0.19922 5.1094 0.59375 c 1.6445 0.39844 3.2227 0.99219 4.7344 1.7812 v 6.5938 c -1.5312 -1.0391 -3.0391 -1.8008 -4.5156 -2.2812 c -1.4805 -0.48828 -3.0391 -0.73438 -4.6719 -0.73438 c -2.9375 0 -5.2461 0.94531 -6.9219 2.8281 c -1.6797 1.875 -2.5156 4.4648 -2.5156 7.7656 c 0 3.293 0.83594 5.8828 2.5156 7.7656 c 1.6758 1.875 3.9844 2.8125 6.9219 2.8125 c 1.6328 0 3.1914 -0.23828 4.6719 -0.71875 c 1.4766 -0.48828 2.9844 -1.2539 4.5156 -2.2969 z" stroke-linecap="round"/>
      </g>
      <g transform="matrix(1.33 0 0 1.33 -313.8 438.63)">
        <path style="stroke: none; stroke-width: 1; stroke-dasharray: none; stroke-linecap: butt; stroke-dashoffset: 0; stroke-linejoin: miter; stroke-miterlimit: 4; fill-rule: nonzero; opacity: 1; fill: rgb(255, 255, 255);" transform=" translate(-12.56, 12.25)" d="m 21.453 -17.406 c -0.67969 -0.3125 -1.3516 -0.53906 -2.0156 -0.6875 c -0.65625 -0.15625 -1.3203 -0.23438 -1.9844 -0.23438 c -1.9688 0 -3.4844 0.63281 -4.5469 1.8906 c -1.0547 1.2617 -1.5781 3.0703 -1.5781 5.4219 v 11.016 h -7.6562 v -23.922 h 7.6562 v 3.9219 c 0.97656 -1.5625 2.1016 -2.7031 3.375 -3.4219 c 1.2812 -0.71875 2.8125 -1.0781 4.5938 -1.0781 c 0.25 0 0.52344 0.011719 0.82812 0.03125 c 0.30078 0.023438 0.73438 0.070312 1.2969 0.14062 z" stroke-linecap="round"/>
      </g>
      <g transform="matrix(1.33 0 0 1.33 -282.17 439.04)">
        <path style="stroke: none; stroke-width: 1; stroke-dasharray: none; stroke-linecap: butt; stroke-dashoffset: 0; stroke-linejoin: miter; stroke-miterlimit: 4; fill-rule: nonzero; opacity: 1; fill: rgb(255, 255, 255);" transform=" translate(-14.72, 11.94)" d="m 27.562 -12.031 v 2.1875 h -17.891 c 0.1875 1.793 0.83203 3.1367 1.9375 4.0312 c 1.1133 0.89844 2.6719 1.3438 4.6719 1.3438 c 1.6016 0 3.25 -0.23438 4.9375 -0.70312 c 1.6875 -0.47656 3.4219 -1.2031 5.2031 -2.1719 v 5.8906 c -1.8047 0.6875 -3.6094 1.2031 -5.4219 1.5469 c -1.8125 0.35156 -3.6211 0.53125 -5.4219 0.53125 c -4.3359 0 -7.7031 -1.0977 -10.109 -3.2969 c -2.3984 -2.207 -3.5938 -5.2969 -3.5938 -9.2656 c 0 -3.9062 1.1758 -6.9727 3.5312 -9.2031 c 2.3633 -2.2383 5.6094 -3.3594 9.7344 -3.3594 c 3.7578 0 6.7695 1.1367 9.0312 3.4062 c 2.2578 2.2617 3.3906 5.2812 3.3906 9.0625 z m -7.8594 -2.5312 c 0 -1.457 -0.42969 -2.6289 -1.2812 -3.5156 c -0.84375 -0.89453 -1.9492 -1.3438 -3.3125 -1.3438 c -1.4922 0 -2.6992 0.41797 -3.625 1.25 c -0.91797 0.83594 -1.4922 2.0391 -1.7188 3.6094 z" stroke-linecap="round"/>
      </g>
      <g transform="matrix(1.33 0 0 1.33 -243.6 439.04)">
        <path style="stroke: none; stroke-width: 1; stroke-dasharray: none; stroke-linecap: butt; stroke-dashoffset: 0; stroke-linejoin: miter; stroke-miterlimit: 4; fill-rule: nonzero; opacity: 1; fill: rgb(255, 255, 255);" transform=" translate(-13.98, 11.94)" d="m 14.391 -10.766 c -1.5938 0 -2.793 0.27344 -3.5938 0.8125 c -0.80469 0.54297 -1.2031 1.3398 -1.2031 2.3906 c 0 0.96875 0.32031 1.7305 0.96875 2.2812 c 0.64453 0.54297 1.5469 0.8125 2.7031 0.8125 c 1.4375 0 2.6445 -0.51562 3.625 -1.5469 c 0.98828 -1.0312 1.4844 -2.3203 1.4844 -3.875 v -0.875 z m 11.688 -2.8906 v 13.656 h -7.7031 v -3.5469 c -1.0312 1.4492 -2.1875 2.5078 -3.4688 3.1719 s -2.8398 1 -4.6719 1 c -2.4805 0 -4.4961 -0.72266 -6.0469 -2.1719 c -1.543 -1.4453 -2.3125 -3.3203 -2.3125 -5.625 c 0 -2.8125 0.96094 -4.8672 2.8906 -6.1719 c 1.9375 -1.3125 4.9688 -1.9688 9.0938 -1.9688 h 4.5156 v -0.60938 c 0 -1.207 -0.48047 -2.0938 -1.4375 -2.6562 c -0.94922 -0.5625 -2.4375 -0.84375 -4.4688 -0.84375 c -1.6367 0 -3.1562 0.16797 -4.5625 0.5 c -1.4062 0.32422 -2.7188 0.8125 -3.9375 1.4688 v -5.8281 c 1.6445 -0.40625 3.2891 -0.70703 4.9375 -0.90625 c 1.6562 -0.20703 3.3047 -0.3125 4.9531 -0.3125 c 4.3203 0 7.4375 0.85547 9.3438 2.5625 c 1.9141 1.6992 2.875 4.4609 2.875 8.2812 z" stroke-linecap="round"/>
      </g>
      <g transform="matrix(1.33 0 0 1.33 -209.2 434.46)">
        <path style="stroke: none; stroke-width: 1; stroke-dasharray: none; stroke-linecap: butt; stroke-dashoffset: 0; stroke-linejoin: miter; stroke-miterlimit: 4; fill-rule: nonzero; opacity: 1; fill: rgb(255, 255, 255);" transform=" translate(-10.24, 15.36)" d="m 12.031 -30.719 v 6.7969 h 7.875 v 5.4688 h -7.875 v 10.141 c 0 1.1172 0.21875 1.8711 0.65625 2.2656 c 0.4375 0.38672 1.3125 0.57812 2.625 0.57812 h 3.9375 v 5.4688 h -6.5625 c -3.0234 0 -5.1641 -0.62891 -6.4219 -1.8906 c -1.2617 -1.2578 -1.8906 -3.3984 -1.8906 -6.4219 v -10.141 h -3.7969 v -5.4688 h 3.7969 v -6.7969 z" stroke-linecap="round"/>
      </g>
      <g transform="matrix(1.33 0 0 1.33 -175.36 439.04)">
        <path style="stroke: none; stroke-width: 1; stroke-dasharray: none; stroke-linecap: butt; stroke-dashoffset: 0; stroke-linejoin: miter; stroke-miterlimit: 4; fill-rule: nonzero; opacity: 1; fill: rgb(255, 255, 255);" transform=" translate(-14.72, 11.94)" d="m 27.562 -12.031 v 2.1875 h -17.891 c 0.1875 1.793 0.83203 3.1367 1.9375 4.0312 c 1.1133 0.89844 2.6719 1.3438 4.6719 1.3438 c 1.6016 0 3.25 -0.23438 4.9375 -0.70312 c 1.6875 -0.47656 3.4219 -1.2031 5.2031 -2.1719 v 5.8906 c -1.8047 0.6875 -3.6094 1.2031 -5.4219 1.5469 c -1.8125 0.35156 -3.6211 0.53125 -5.4219 0.53125 c -4.3359 0 -7.7031 -1.0977 -10.109 -3.2969 c -2.3984 -2.207 -3.5938 -5.2969 -3.5938 -9.2656 c 0 -3.9062 1.1758 -6.9727 3.5312 -9.2031 c 2.3633 -2.2383 5.6094 -3.3594 9.7344 -3.3594 c 3.7578 0 6.7695 1.1367 9.0312 3.4062 c 2.2578 2.2617 3.3906 5.2812 3.3906 9.0625 z m -7.8594 -2.5312 c 0 -1.457 -0.42969 -2.6289 -1.2812 -3.5156 c -0.84375 -0.89453 -1.9492 -1.3438 -3.3125 -1.3438 c -1.4922 0 -2.6992 0.41797 -3.625 1.25 c -0.91797 0.83594 -1.4922 2.0391 -1.7188 3.6094 z" stroke-linecap="round"/>
      </g>
      <g transform="matrix(1.33 0 0 1.33 -135.68 433.2)">
        <path style="stroke: none; stroke-width: 1; stroke-dasharray: none; stroke-linecap: butt; stroke-dashoffset: 0; stroke-linejoin: miter; stroke-miterlimit: 4; fill-rule: nonzero; opacity: 1; fill: rgb(255, 255, 255);" transform=" translate(-14.8, 16.3)" d="m 19.953 -20.422 v -12.812 h 7.6875 v 33.234 h -7.6875 v -3.4531 c -1.0547 1.4062 -2.2148 2.4375 -3.4844 3.0938 c -1.2734 0.65625 -2.7422 0.98438 -4.4062 0.98438 c -2.9492 0 -5.3711 -1.1719 -7.2656 -3.5156 c -1.8867 -2.3438 -2.8281 -5.3594 -2.8281 -9.0469 s 0.94141 -6.7031 2.8281 -9.0469 c 1.8945 -2.3438 4.3164 -3.5156 7.2656 -3.5156 c 1.6562 0 3.1172 0.33594 4.3906 1 c 1.2812 0.65625 2.4453 1.6836 3.5 3.0781 z m -5.0469 15.484 c 1.6445 0 2.8945 -0.59766 3.75 -1.7969 c 0.86328 -1.1953 1.2969 -2.9297 1.2969 -5.2031 c 0 -2.2812 -0.43359 -4.0195 -1.2969 -5.2188 c -0.85547 -1.1953 -2.1055 -1.7969 -3.75 -1.7969 c -1.625 0 -2.8711 0.60156 -3.7344 1.7969 c -0.85547 1.1992 -1.2812 2.9375 -1.2812 5.2188 c 0 2.2734 0.42578 4.0078 1.2812 5.2031 c 0.86328 1.1992 2.1094 1.7969 3.7344 1.7969 z" stroke-linecap="round"/>
      </g>
      <g transform="matrix(1.33 0 0 1.33 -71.34 433.2)">
        <path style="stroke: none; stroke-width: 1; stroke-dasharray: none; stroke-linecap: butt; stroke-dashoffset: 0; stroke-linejoin: miter; stroke-miterlimit: 4; fill-rule: nonzero; opacity: 1; fill: rgb(255, 255, 255);" transform=" translate(-16.52, 16.3)" d="m 16.406 -4.9375 c 1.6328 0 2.8828 -0.59766 3.75 -1.7969 c 0.86328 -1.1953 1.2969 -2.9297 1.2969 -5.2031 c 0 -2.2812 -0.43359 -4.0195 -1.2969 -5.2188 c -0.86719 -1.1953 -2.1172 -1.7969 -3.75 -1.7969 c -1.6367 0 -2.8906 0.60547 -3.7656 1.8125 c -0.875 1.1992 -1.3125 2.9336 -1.3125 5.2031 c 0 2.2617 0.4375 3.9961 1.3125 5.2031 c 0.875 1.1992 2.1289 1.7969 3.7656 1.7969 z m -5.0781 -15.484 c 1.0508 -1.3945 2.2188 -2.4219 3.5 -3.0781 c 1.2812 -0.66406 2.7539 -1 4.4219 -1 c 2.9453 0 5.3672 1.1719 7.2656 3.5156 c 1.8945 2.3438 2.8438 5.3594 2.8438 9.0469 s -0.94922 6.7031 -2.8438 9.0469 c -1.8984 2.3438 -4.3203 3.5156 -7.2656 3.5156 c -1.668 0 -3.1406 -0.33594 -4.4219 -1 s -2.4492 -1.6914 -3.5 -3.0781 v 3.4531 h -7.6562 v -33.234 h 7.6562 z" stroke-linecap="round"/>
      </g>
      <g transform="matrix(1.33 0 0 1.33 -32.76 445.29)">
        <path style="stroke: none; stroke-width: 1; stroke-dasharray: none; stroke-linecap: butt; stroke-dashoffset: 0; stroke-linejoin: miter; stroke-miterlimit: 4; fill-rule: nonzero; opacity: 1; fill: rgb(255, 255, 255);" transform=" translate(-14.13, 7.24)" d="m 0.53125 -23.922 h 7.6562 l 6.4219 16.234 l 5.4688 -16.234 h 7.6562 l -10.062 26.188 c -1.0117 2.6641 -2.1953 4.5234 -3.5469 5.5781 c -1.3438 1.0625 -3.1211 1.5938 -5.3281 1.5938 h -4.4219 v -5.0156 h 2.3906 c 1.3008 0 2.2422 -0.21094 2.8281 -0.625 c 0.59375 -0.40625 1.0547 -1.1484 1.3906 -2.2188 l 0.20312 -0.65625 z" stroke-linecap="round"/>
      </g>
      <g transform="matrix(1.33 0 0 1.33 17.59 433.68)">
        <path style="stroke: none; stroke-width: 1; stroke-dasharray: none; stroke-linecap: butt; stroke-dashoffset: 0; stroke-linejoin: miter; stroke-miterlimit: 4; fill-rule: nonzero; opacity: 1; fill: rgb(255, 255, 255);" transform=" translate(-8.13, 15.95)" d="m 4.0156 -31.891 h 8.2188 v 31.891 h -8.2188 z" stroke-linecap="round"/>
      </g>
      <g transform="matrix(1.33 0 0 1.33 45.02 439.04)">
        <path style="stroke: none; stroke-width: 1; stroke-dasharray: none; stroke-linecap: butt; stroke-dashoffset: 0; stroke-linejoin: miter; stroke-miterlimit: 4; fill-rule: nonzero; opacity: 1; fill: rgb(255, 255, 255);" transform=" translate(-12.44, 11.94)" d="m 23 -23.172 v 6.2344 c -1.0312 -0.71875 -2.0742 -1.2422 -3.125 -1.5781 c -1.043 -0.34375 -2.125 -0.51562 -3.25 -0.51562 c -2.1367 0 -3.8047 0.625 -5 1.875 c -1.1875 1.2422 -1.7812 2.9805 -1.7812 5.2188 c 0 2.2305 0.59375 3.9688 1.7812 5.2188 c 1.1953 1.25 2.8633 1.875 5 1.875 c 1.1953 0 2.332 -0.17578 3.4062 -0.53125 c 1.0703 -0.36328 2.0625 -0.89453 2.9688 -1.5938 v 6.2656 c -1.1875 0.4375 -2.4023 0.76562 -3.6406 0.98438 c -1.2305 0.22656 -2.4648 0.34375 -3.7031 0.34375 c -4.3125 0 -7.6875 -1.1094 -10.125 -3.3281 s -3.6562 -5.2969 -3.6562 -9.2344 c 0 -3.9453 1.2188 -7.0234 3.6562 -9.2344 c 2.4375 -2.2188 5.8125 -3.3281 10.125 -3.3281 c 1.25 0 2.4844 0.10938 3.7031 0.32812 s 2.4297 0.55469 3.6406 1 z" stroke-linecap="round"/>
      </g>
      <g transform="matrix(1.33 0 0 1.33 83.04 439.04)">
        <path style="stroke: none; stroke-width: 1; stroke-dasharray: none; stroke-linecap: butt; stroke-dashoffset: 0; stroke-linejoin: miter; stroke-miterlimit: 4; fill-rule: nonzero; opacity: 1; fill: rgb(255, 255, 255);" transform=" translate(-15.02, 11.94)" d="m 15.062 -19.031 c -1.6992 0 -2.9961 0.60938 -3.8906 1.8281 c -0.88672 1.2188 -1.3281 2.9766 -1.3281 5.2656 c 0 2.293 0.44141 4.0469 1.3281 5.2656 c 0.89453 1.2188 2.1914 1.8281 3.8906 1.8281 c 1.6641 0 2.9375 -0.60938 3.8125 -1.8281 c 0.88281 -1.2188 1.3281 -2.9727 1.3281 -5.2656 c 0 -2.2891 -0.44531 -4.0469 -1.3281 -5.2656 c -0.875 -1.2188 -2.1484 -1.8281 -3.8125 -1.8281 z m 0 -5.4688 c 4.1133 0 7.3281 1.1094 9.6406 3.3281 s 3.4688 5.2969 3.4688 9.2344 c 0 3.9297 -1.1562 7.0078 -3.4688 9.2344 c -2.3125 2.2188 -5.5273 3.3281 -9.6406 3.3281 c -4.1367 0 -7.3711 -1.1094 -9.7031 -3.3281 c -2.3242 -2.2266 -3.4844 -5.3047 -3.4844 -9.2344 c 0 -3.9375 1.1602 -7.0156 3.4844 -9.2344 c 2.332 -2.2188 5.5664 -3.3281 9.7031 -3.3281 z" stroke-linecap="round"/>
      </g>
      <g transform="matrix(1.33 0 0 1.33 124.03 438.63)">
        <path style="stroke: none; stroke-width: 1; stroke-dasharray: none; stroke-linecap: butt; stroke-dashoffset: 0; stroke-linejoin: miter; stroke-miterlimit: 4; fill-rule: nonzero; opacity: 1; fill: rgb(255, 255, 255);" transform=" translate(-15.7, 12.25)" d="m 27.734 -14.562 v 14.562 h -7.7031 v -11.156 c 0 -2.0625 -0.046875 -3.4844 -0.14062 -4.2656 c -0.085937 -0.78125 -0.24219 -1.3594 -0.46875 -1.7344 c -0.30469 -0.5 -0.71094 -0.88281 -1.2188 -1.1562 c -0.51172 -0.28125 -1.0938 -0.42188 -1.75 -0.42188 c -1.5938 0 -2.8516 0.61719 -3.7656 1.8438 c -0.90625 1.2305 -1.3594 2.9375 -1.3594 5.125 v 11.766 h -7.6562 v -23.922 h 7.6562 v 3.5 c 1.1445 -1.3945 2.3633 -2.4219 3.6562 -3.0781 c 1.3008 -0.66406 2.7383 -1 4.3125 -1 c 2.7578 0 4.8516 0.85156 6.2812 2.5469 c 1.4375 1.6875 2.1562 4.1523 2.1562 7.3906 z" stroke-linecap="round"/>
      </g>
      <g transform="matrix(1.33 0 0 1.33 154.65 432.79)">
        <path style="stroke: none; stroke-width: 1; stroke-dasharray: none; stroke-linecap: butt; stroke-dashoffset: 0; stroke-linejoin: miter; stroke-miterlimit: 4; fill-rule: nonzero; opacity: 1; fill: rgb(255, 255, 255);" transform=" translate(-7.5, 16.62)" d="m 3.6719 -23.922 h 7.6562 v 23.922 h -7.6562 z m 0 -9.3125 h 7.6562 v 6.2344 h -7.6562 z" stroke-linecap="round"/>
      </g>
      <g transform="matrix(1.33 0 0 1.33 184.35 444.7)">
        <path style="stroke: none; stroke-width: 1; stroke-dasharray: none; stroke-linecap: butt; stroke-dashoffset: 0; stroke-linejoin: miter; stroke-miterlimit: 4; fill-rule: nonzero; opacity: 1; fill: rgb(255, 255, 255);" transform=" translate(-14.8, 7.68)" d="m 14.906 -18.953 c -1.625 0 -2.8711 0.60156 -3.7344 1.7969 c -0.85547 1.1992 -1.2812 2.9375 -1.2812 5.2188 c 0 2.2734 0.42578 4.0078 1.2812 5.2031 c 0.86328 1.1992 2.1094 1.7969 3.7344 1.7969 c 1.6445 0 2.8945 -0.59766 3.75 -1.7969 c 0.86328 -1.1953 1.2969 -2.9297 1.2969 -5.2031 c 0 -2.2812 -0.43359 -4.0195 -1.2969 -5.2188 c -0.85547 -1.1953 -2.1055 -1.7969 -3.75 -1.7969 z m 5.0469 15.5 c -1.0547 1.4062 -2.2148 2.4375 -3.4844 3.0938 c -1.2734 0.65625 -2.7422 0.98438 -4.4062 0.98438 c -2.9492 0 -5.3711 -1.1719 -7.2656 -3.5156 c -1.8867 -2.3438 -2.8281 -5.3594 -2.8281 -9.0469 s 0.94141 -6.6914 2.8281 -9.0156 c 1.8945 -2.332 4.3164 -3.5 7.2656 -3.5 c 1.6641 0 3.1328 0.32812 4.4062 0.98438 c 1.2695 0.64844 2.4297 1.6797 3.4844 3.0938 v -3.5469 h 7.6875 v 33.016 h -7.6875 z" stroke-linecap="round"/>
      </g>
      <g transform="matrix(1.33 0 0 1.33 226.97 439.43)">
        <path style="stroke: none; stroke-width: 1; stroke-dasharray: none; stroke-linecap: butt; stroke-dashoffset: 0; stroke-linejoin: miter; stroke-miterlimit: 4; fill-rule: nonzero; opacity: 1; fill: rgb(255, 255, 255);" transform=" translate(-15.45, 11.65)" d="m 3.4219 -9.3125 v -14.609 h 7.6875 v 2.3906 c 0 1.293 -0.011719 2.918 -0.03125 4.875 c -0.011719 1.9609 -0.015625 3.2656 -0.015625 3.9219 c 0 1.9297 0.046875 3.3125 0.14062 4.1562 c 0.10156 0.84375 0.28125 1.4609 0.53125 1.8438 c 0.3125 0.5 0.71875 0.88672 1.2188 1.1562 c 0.50781 0.27344 1.0938 0.40625 1.75 0.40625 c 1.5938 0 2.8438 -0.60938 3.75 -1.8281 c 0.91406 -1.2266 1.375 -2.9297 1.375 -5.1094 v -11.812 h 7.6406 v 23.922 h -7.6406 v -3.4531 c -1.1562 1.3867 -2.3828 2.4141 -3.6719 3.0781 c -1.2812 0.66406 -2.6992 1 -4.25 1 c -2.7734 0 -4.8828 -0.84766 -6.3281 -2.5469 c -1.4375 -1.6953 -2.1562 -4.1602 -2.1562 -7.3906 z" stroke-linecap="round"/>
      </g>
    </g>
  </g>
</svg>