<?xml version="1.0" encoding="utf-8"?>
<svg version="1.1" width="447" height="480" viewBox="0 0 447 480" xmlns="http://www.w3.org/2000/svg">
  <desc>Created with Fabric.js 3.6.3</desc>
  <rect x="0" y="0" width="100%" height="100%" fill="rgba(255, 255, 255, 0)"/>
  <g transform="matrix(0.59 0 0 0.59 224.15 290.44)">
    <g style="">
      <g transform="matrix(1.33 0 0 1.33 -23.27 -23.24)">
        <path style="stroke: none; stroke-width: 1; stroke-dasharray: none; stroke-linecap: butt; stroke-dashoffset: 0; stroke-linejoin: miter; stroke-miterlimit: 4; fill-rule: nonzero; opacity: 1; fill: rgb(255, 255, 255);" transform=" translate(-332.55, -332.57)" d="m 534.12 146.95 c -0.51172 -2.4297 -2.0352 -4.5312 -4.1875 -5.7773 c -2.1602 -1.2383 -4.7383 -1.5156 -7.0977 -0.73438 c -6.3359 2.0703 -155.43 51.879 -184.29 147.3 c -11.215 37.094 -2.6641 75.73 25.359 114.97 c -33.934 46.168 -65.684 71.117 -115.03 85.812 c -7.7031 -15.777 -12.625 -33.879 -15.777 -56.605 c 43.309 -19.898 69.895 -48.77 78.664 -86.184 c 22.789 -97.211 -82.039 -215.34 -86.512 -220.32 c -3.3242 -3.6992 -9.6992 -3.6992 -13.023 0 c -4.4727 4.9766 -109.3 123.11 -86.512 220.32 c 9.5117 40.574 39.723 71.242 89.789 91.152 c 0.16406 0.066406 0.33984 0.042969 0.50781 0.097656 c 6.5664 45.809 20.289 74.199 49.039 102.96 c 1.7148 1.7109 3.9531 2.5664 6.1914 2.5664 s 4.4766 -0.85547 6.1875 -2.5625 c 3.418 -3.4141 3.418 -8.9531 0 -12.375 c -7.6406 -7.6406 -14.098 -15.332 -19.578 -23.488 c 50.66 -15.93 84.199 -42.867 118.67 -89.191 c 10.637 1.5469 20.805 2.3281 30.484 2.3281 c 38.391 0 69.199 -12.121 91.836 -36.199 c 68.293 -72.656 36.656 -227.51 35.273 -234.07 z m -391.36 194.82 c -17.625 -75.098 53.621 -169.63 75.98 -196.96 c 22.359 27.324 93.605 121.86 75.98 196.96 c -7.1328 30.387 -28.617 54.461 -63.707 71.855 c -1.1367 -12.398 -1.9102 -26.043 -2.4297 -41.254 l 29.07 -14.535 c 4.3242 -2.1602 6.0742 -7.418 3.9141 -11.742 c -2.1562 -4.3242 -7.4023 -6.0781 -11.742 -3.9141 l -21.758 10.879 c -0.15625 -7.6328 -0.27344 -15.633 -0.35547 -24.004 l 29.941 -14.969 c 4.3242 -2.1602 6.0742 -7.418 3.9141 -11.742 c -2.1562 -4.3203 -7.4023 -6.0703 -11.742 -3.9141 l -22.254 11.125 c -0.078125 -17.086 -0.082031 -35.582 -0.082031 -55.797 c 0 -4.832 -3.918 -8.75 -8.75 -8.75 s -8.75 3.918 -8.75 8.75 c 0 20.195 0.003906 38.711 0.085938 55.883 l -22.422 -11.211 c -4.3359 -2.1562 -9.5781 -0.40625 -11.742 3.9141 c -2.1602 4.3242 -0.41016 9.5781 3.9141 11.742 l 30.383 15.191 c 0.082031 8.4805 0.19531 16.602 0.35156 24.359 l -22.91 -11.453 c -4.3359 -2.168 -9.5781 -0.41016 -11.742 3.9141 c -2.1602 4.3242 -0.41016 9.5781 3.9141 11.742 l 31.277 15.641 c 0.54297 15.988 1.3477 30.418 2.5625 43.484 c -39.344 -17.594 -63.297 -42.801 -70.902 -75.195 z m 343.33 27.258 c -22.582 24.023 -55.605 33.824 -97.91 29.531 c 7.6445 -11.117 15.441 -23.215 23.566 -36.371 l 34.547 2.0781 c 0.17969 0.011719 0.35937 0.015626 0.53516 0.015626 c 4.5938 0 8.4453 -3.582 8.7227 -8.2227 c 0.28906 -4.8242 -3.3828 -8.9688 -8.207 -9.2578 l -25.301 -1.5234 c 4.0195 -6.6992 8.1484 -13.684 12.375 -20.895 l 33.66 2.0273 c 0.17969 0.011718 0.35938 0.015625 0.53516 0.015625 c 4.5938 0 8.4453 -3.582 8.7227 -8.2227 c 0.28906 -4.8242 -3.3828 -8.9688 -8.207 -9.2578 l -24.84 -1.4961 c 6.8867 -11.875 14.07 -24.367 21.668 -37.578 l 6.1836 -10.75 c 2.4102 -4.1875 0.96875 -9.5352 -3.2227 -11.945 c -4.1875 -2.4102 -9.5352 -0.96484 -11.945 3.2227 l -6.1875 10.75 c -7.6055 13.223 -14.766 25.676 -21.605 37.473 l -13.637 -20.723 c -2.6562 -4.0312 -8.0742 -5.1445 -12.121 -2.5 c -4.0391 2.6562 -5.1562 8.082 -2.5 12.121 l 18.418 27.988 c -4.1758 7.1289 -8.2383 14.012 -12.188 20.602 l -13.395 -20.355 c -2.6562 -4.0312 -8.0742 -5.1484 -12.121 -2.5 c -4.0391 2.6562 -5.1562 8.082 -2.5 12.121 l 17.961 27.293 c -7.7656 12.617 -15.172 24.164 -22.383 34.734 c -21.863 -32.781 -28.504 -64.539 -19.434 -94.566 c 22.258 -73.684 130.56 -119.84 163.48 -132.33 c 5.7109 34.867 20.125 152.35 -32.676 208.52 z" stroke-linecap="round"/>
      </g>
      <g transform="matrix(1.33 0 0 1.33 0 -140)">
        <path style="stroke: none; stroke-width: 1; stroke-dasharray: none; stroke-linecap: butt; stroke-dashoffset: 0; stroke-linejoin: miter; stroke-miterlimit: 4; fill-rule: nonzero; opacity: 1; fill: rgb(255, 255, 255);" transform=" translate(-350, -245)" d="m 350 17.5 c -144.74 0 -262.5 117.76 -262.5 262.5 c 0 72.531 28.934 140.04 81.465 190.09 c 3.5 3.332 9.0391 3.2031 12.375 -0.30078 c 3.332 -3.5 3.1992 -9.0391 -0.30078 -12.375 c -49.039 -46.707 -76.039 -109.72 -76.039 -177.41 c 0 -135.09 109.91 -245 245 -245 s 245 109.91 245 245 c 0 67.691 -27 130.7 -76.035 177.41 c -3.5 3.332 -3.6328 8.875 -0.30078 12.375 c 1.7227 1.8008 4.0273 2.7109 6.3359 2.7109 c 2.1719 0 4.3398 -0.80078 6.0352 -2.4141 c 52.531 -50.047 81.465 -117.55 81.465 -190.09 c 0 -144.74 -117.76 -262.5 -262.5 -262.5 z" stroke-linecap="round"/>
      </g>
      <g transform="matrix(1.33 0 0 1.33 -352.34 433.77)">
        <path style="stroke: none; stroke-width: 1; stroke-dasharray: none; stroke-linecap: butt; stroke-dashoffset: 0; stroke-linejoin: miter; stroke-miterlimit: 4; fill: rgb(0,0,0); fill-rule: nonzero; opacity: 1;" transform=" translate(-15.74, 15.92)" d="m 29.312 -1.75 c -1.5117 0.78125 -3.0898 1.3711 -4.7344 1.7656 c -1.6367 0.40625 -3.3398 0.60938 -5.1094 0.60938 c -5.3125 0 -9.5273 -1.4844 -12.641 -4.4531 c -3.1055 -2.9688 -4.6562 -7 -4.6562 -12.094 s 1.5508 -9.125 4.6562 -12.094 c 3.1133 -2.9688 7.3281 -4.4531 12.641 -4.4531 c 1.7695 0 3.4727 0.19922 5.1094 0.59375 c 1.6445 0.39844 3.2227 0.99219 4.7344 1.7812 v 6.5938 c -1.5312 -1.0391 -3.0391 -1.8008 -4.5156 -2.2812 c -1.4805 -0.48828 -3.0391 -0.73438 -4.6719 -0.73438 c -2.9375 0 -5.2461 0.94531 -6.9219 2.8281 c -1.6797 1.875 -2.5156 4.4648 -2.5156 7.7656 c 0 3.293 0.83594 5.8828 2.5156 7.7656 c 1.6758 1.875 3.9844 2.8125 6.9219 2.8125 c 1.6328 0 3.1914 -0.23828 4.6719 -0.71875 c 1.4766 -0.48828 2.9844 -1.2539 4.5156 -2.2969 z" stroke-linecap="round"/>
      </g>
      <g transform="matrix(1.33 0 0 1.33 -313.77 438.67)">
        <path style="stroke: none; stroke-width: 1; stroke-dasharray: none; stroke-linecap: butt; stroke-dashoffset: 0; stroke-linejoin: miter; stroke-miterlimit: 4; fill: rgb(0,0,0); fill-rule: nonzero; opacity: 1;" transform=" translate(-12.56, 12.25)" d="m 21.453 -17.406 c -0.67969 -0.3125 -1.3516 -0.53906 -2.0156 -0.6875 c -0.65625 -0.15625 -1.3203 -0.23438 -1.9844 -0.23438 c -1.9688 0 -3.4844 0.63281 -4.5469 1.8906 c -1.0547 1.2617 -1.5781 3.0703 -1.5781 5.4219 v 11.016 h -7.6562 v -23.922 h 7.6562 v 3.9219 c 0.97656 -1.5625 2.1016 -2.7031 3.375 -3.4219 c 1.2812 -0.71875 2.8125 -1.0781 4.5938 -1.0781 c 0.25 0 0.52344 0.011719 0.82812 0.03125 c 0.30078 0.023438 0.73438 0.070312 1.2969 0.14062 z" stroke-linecap="round"/>
      </g>
      <g transform="matrix(1.33 0 0 1.33 -282.13 439.08)">
        <path style="stroke: none; stroke-width: 1; stroke-dasharray: none; stroke-linecap: butt; stroke-dashoffset: 0; stroke-linejoin: miter; stroke-miterlimit: 4; fill: rgb(0,0,0); fill-rule: nonzero; opacity: 1;" transform=" translate(-14.72, 11.94)" d="m 27.562 -12.031 v 2.1875 h -17.891 c 0.1875 1.793 0.83203 3.1367 1.9375 4.0312 c 1.1133 0.89844 2.6719 1.3438 4.6719 1.3438 c 1.6016 0 3.25 -0.23438 4.9375 -0.70312 c 1.6875 -0.47656 3.4219 -1.2031 5.2031 -2.1719 v 5.8906 c -1.8047 0.6875 -3.6094 1.2031 -5.4219 1.5469 c -1.8125 0.35156 -3.6211 0.53125 -5.4219 0.53125 c -4.3359 0 -7.7031 -1.0977 -10.109 -3.2969 c -2.3984 -2.207 -3.5938 -5.2969 -3.5938 -9.2656 c 0 -3.9062 1.1758 -6.9727 3.5312 -9.2031 c 2.3633 -2.2383 5.6094 -3.3594 9.7344 -3.3594 c 3.7578 0 6.7695 1.1367 9.0312 3.4062 c 2.2578 2.2617 3.3906 5.2812 3.3906 9.0625 z m -7.8594 -2.5312 c 0 -1.457 -0.42969 -2.6289 -1.2812 -3.5156 c -0.84375 -0.89453 -1.9492 -1.3438 -3.3125 -1.3438 c -1.4922 0 -2.6992 0.41797 -3.625 1.25 c -0.91797 0.83594 -1.4922 2.0391 -1.7188 3.6094 z" stroke-linecap="round"/>
      </g>
      <g transform="matrix(1.33 0 0 1.33 -243.56 439.08)">
        <path style="stroke: none; stroke-width: 1; stroke-dasharray: none; stroke-linecap: butt; stroke-dashoffset: 0; stroke-linejoin: miter; stroke-miterlimit: 4; fill: rgb(0,0,0); fill-rule: nonzero; opacity: 1;" transform=" translate(-13.98, 11.94)" d="m 14.391 -10.766 c -1.5938 0 -2.793 0.27344 -3.5938 0.8125 c -0.80469 0.54297 -1.2031 1.3398 -1.2031 2.3906 c 0 0.96875 0.32031 1.7305 0.96875 2.2812 c 0.64453 0.54297 1.5469 0.8125 2.7031 0.8125 c 1.4375 0 2.6445 -0.51562 3.625 -1.5469 c 0.98828 -1.0312 1.4844 -2.3203 1.4844 -3.875 v -0.875 z m 11.688 -2.8906 v 13.656 h -7.7031 v -3.5469 c -1.0312 1.4492 -2.1875 2.5078 -3.4688 3.1719 s -2.8398 1 -4.6719 1 c -2.4805 0 -4.4961 -0.72266 -6.0469 -2.1719 c -1.543 -1.4453 -2.3125 -3.3203 -2.3125 -5.625 c 0 -2.8125 0.96094 -4.8672 2.8906 -6.1719 c 1.9375 -1.3125 4.9688 -1.9688 9.0938 -1.9688 h 4.5156 v -0.60938 c 0 -1.207 -0.48047 -2.0938 -1.4375 -2.6562 c -0.94922 -0.5625 -2.4375 -0.84375 -4.4688 -0.84375 c -1.6367 0 -3.1562 0.16797 -4.5625 0.5 c -1.4062 0.32422 -2.7188 0.8125 -3.9375 1.4688 v -5.8281 c 1.6445 -0.40625 3.2891 -0.70703 4.9375 -0.90625 c 1.6562 -0.20703 3.3047 -0.3125 4.9531 -0.3125 c 4.3203 0 7.4375 0.85547 9.3438 2.5625 c 1.9141 1.6992 2.875 4.4609 2.875 8.2812 z" stroke-linecap="round"/>
      </g>
      <g transform="matrix(1.33 0 0 1.33 -209.17 434.52)">
        <path style="stroke: none; stroke-width: 1; stroke-dasharray: none; stroke-linecap: butt; stroke-dashoffset: 0; stroke-linejoin: miter; stroke-miterlimit: 4; fill: rgb(0,0,0); fill-rule: nonzero; opacity: 1;" transform=" translate(-10.24, 15.36)" d="m 12.031 -30.719 v 6.7969 h 7.875 v 5.4688 h -7.875 v 10.141 c 0 1.1172 0.21875 1.8711 0.65625 2.2656 c 0.4375 0.38672 1.3125 0.57812 2.625 0.57812 h 3.9375 v 5.4688 h -6.5625 c -3.0234 0 -5.1641 -0.62891 -6.4219 -1.8906 c -1.2617 -1.2578 -1.8906 -3.3984 -1.8906 -6.4219 v -10.141 h -3.7969 v -5.4688 h 3.7969 v -6.7969 z" stroke-linecap="round"/>
      </g>
      <g transform="matrix(1.33 0 0 1.33 -175.32 439.08)">
        <path style="stroke: none; stroke-width: 1; stroke-dasharray: none; stroke-linecap: butt; stroke-dashoffset: 0; stroke-linejoin: miter; stroke-miterlimit: 4; fill: rgb(0,0,0); fill-rule: nonzero; opacity: 1;" transform=" translate(-14.72, 11.94)" d="m 27.562 -12.031 v 2.1875 h -17.891 c 0.1875 1.793 0.83203 3.1367 1.9375 4.0312 c 1.1133 0.89844 2.6719 1.3438 4.6719 1.3438 c 1.6016 0 3.25 -0.23438 4.9375 -0.70312 c 1.6875 -0.47656 3.4219 -1.2031 5.2031 -2.1719 v 5.8906 c -1.8047 0.6875 -3.6094 1.2031 -5.4219 1.5469 c -1.8125 0.35156 -3.6211 0.53125 -5.4219 0.53125 c -4.3359 0 -7.7031 -1.0977 -10.109 -3.2969 c -2.3984 -2.207 -3.5938 -5.2969 -3.5938 -9.2656 c 0 -3.9062 1.1758 -6.9727 3.5312 -9.2031 c 2.3633 -2.2383 5.6094 -3.3594 9.7344 -3.3594 c 3.7578 0 6.7695 1.1367 9.0312 3.4062 c 2.2578 2.2617 3.3906 5.2812 3.3906 9.0625 z m -7.8594 -2.5312 c 0 -1.457 -0.42969 -2.6289 -1.2812 -3.5156 c -0.84375 -0.89453 -1.9492 -1.3438 -3.3125 -1.3438 c -1.4922 0 -2.6992 0.41797 -3.625 1.25 c -0.91797 0.83594 -1.4922 2.0391 -1.7188 3.6094 z" stroke-linecap="round"/>
      </g>
      <g transform="matrix(1.33 0 0 1.33 -135.64 433.26)">
        <path style="stroke: none; stroke-width: 1; stroke-dasharray: none; stroke-linecap: butt; stroke-dashoffset: 0; stroke-linejoin: miter; stroke-miterlimit: 4; fill: rgb(0,0,0); fill-rule: nonzero; opacity: 1;" transform=" translate(-14.8, 16.3)" d="m 19.953 -20.422 v -12.812 h 7.6875 v 33.234 h -7.6875 v -3.4531 c -1.0547 1.4062 -2.2148 2.4375 -3.4844 3.0938 c -1.2734 0.65625 -2.7422 0.98438 -4.4062 0.98438 c -2.9492 0 -5.3711 -1.1719 -7.2656 -3.5156 c -1.8867 -2.3438 -2.8281 -5.3594 -2.8281 -9.0469 s 0.94141 -6.7031 2.8281 -9.0469 c 1.8945 -2.3438 4.3164 -3.5156 7.2656 -3.5156 c 1.6562 0 3.1172 0.33594 4.3906 1 c 1.2812 0.65625 2.4453 1.6836 3.5 3.0781 z m -5.0469 15.484 c 1.6445 0 2.8945 -0.59766 3.75 -1.7969 c 0.86328 -1.1953 1.2969 -2.9297 1.2969 -5.2031 c 0 -2.2812 -0.43359 -4.0195 -1.2969 -5.2188 c -0.85547 -1.1953 -2.1055 -1.7969 -3.75 -1.7969 c -1.625 0 -2.8711 0.60156 -3.7344 1.7969 c -0.85547 1.1992 -1.2812 2.9375 -1.2812 5.2188 c 0 2.2734 0.42578 4.0078 1.2812 5.2031 c 0.86328 1.1992 2.1094 1.7969 3.7344 1.7969 z" stroke-linecap="round"/>
      </g>
      <g transform="matrix(1.33 0 0 1.33 -71.3 433.26)">
        <path style="stroke: none; stroke-width: 1; stroke-dasharray: none; stroke-linecap: butt; stroke-dashoffset: 0; stroke-linejoin: miter; stroke-miterlimit: 4; fill: rgb(0,0,0); fill-rule: nonzero; opacity: 1;" transform=" translate(-16.52, 16.3)" d="m 16.406 -4.9375 c 1.6328 0 2.8828 -0.59766 3.75 -1.7969 c 0.86328 -1.1953 1.2969 -2.9297 1.2969 -5.2031 c 0 -2.2812 -0.43359 -4.0195 -1.2969 -5.2188 c -0.86719 -1.1953 -2.1172 -1.7969 -3.75 -1.7969 c -1.6367 0 -2.8906 0.60547 -3.7656 1.8125 c -0.875 1.1992 -1.3125 2.9336 -1.3125 5.2031 c 0 2.2617 0.4375 3.9961 1.3125 5.2031 c 0.875 1.1992 2.1289 1.7969 3.7656 1.7969 z m -5.0781 -15.484 c 1.0508 -1.3945 2.2188 -2.4219 3.5 -3.0781 c 1.2812 -0.66406 2.7539 -1 4.4219 -1 c 2.9453 0 5.3672 1.1719 7.2656 3.5156 c 1.8945 2.3438 2.8438 5.3594 2.8438 9.0469 s -0.94922 6.7031 -2.8438 9.0469 c -1.8984 2.3438 -4.3203 3.5156 -7.2656 3.5156 c -1.668 0 -3.1406 -0.33594 -4.4219 -1 s -2.4492 -1.6914 -3.5 -3.0781 v 3.4531 h -7.6562 v -33.234 h 7.6562 z" stroke-linecap="round"/>
      </g>
      <g transform="matrix(1.33 0 0 1.33 -32.72 445.34)">
        <path style="stroke: none; stroke-width: 1; stroke-dasharray: none; stroke-linecap: butt; stroke-dashoffset: 0; stroke-linejoin: miter; stroke-miterlimit: 4; fill: rgb(0,0,0); fill-rule: nonzero; opacity: 1;" transform=" translate(-14.13, 7.24)" d="m 0.53125 -23.922 h 7.6562 l 6.4219 16.234 l 5.4688 -16.234 h 7.6562 l -10.062 26.188 c -1.0117 2.6641 -2.1953 4.5234 -3.5469 5.5781 c -1.3438 1.0625 -3.1211 1.5938 -5.3281 1.5938 h -4.4219 v -5.0156 h 2.3906 c 1.3008 0 2.2422 -0.21094 2.8281 -0.625 c 0.59375 -0.40625 1.0547 -1.1484 1.3906 -2.2188 l 0.20312 -0.65625 z" stroke-linecap="round"/>
      </g>
      <g transform="matrix(1.33 0 0 1.33 17.6 433.74)">
        <path style="stroke: none; stroke-width: 1; stroke-dasharray: none; stroke-linecap: butt; stroke-dashoffset: 0; stroke-linejoin: miter; stroke-miterlimit: 4; fill: rgb(0,0,0); fill-rule: nonzero; opacity: 1;" transform=" translate(-8.13, 15.95)" d="m 4.0156 -31.891 h 8.2188 v 31.891 h -8.2188 z" stroke-linecap="round"/>
      </g>
      <g transform="matrix(1.33 0 0 1.33 45.06 439.08)">
        <path style="stroke: none; stroke-width: 1; stroke-dasharray: none; stroke-linecap: butt; stroke-dashoffset: 0; stroke-linejoin: miter; stroke-miterlimit: 4; fill: rgb(0,0,0); fill-rule: nonzero; opacity: 1;" transform=" translate(-12.44, 11.94)" d="m 23 -23.172 v 6.2344 c -1.0312 -0.71875 -2.0742 -1.2422 -3.125 -1.5781 c -1.043 -0.34375 -2.125 -0.51562 -3.25 -0.51562 c -2.1367 0 -3.8047 0.625 -5 1.875 c -1.1875 1.2422 -1.7812 2.9805 -1.7812 5.2188 c 0 2.2305 0.59375 3.9688 1.7812 5.2188 c 1.1953 1.25 2.8633 1.875 5 1.875 c 1.1953 0 2.332 -0.17578 3.4062 -0.53125 c 1.0703 -0.36328 2.0625 -0.89453 2.9688 -1.5938 v 6.2656 c -1.1875 0.4375 -2.4023 0.76562 -3.6406 0.98438 c -1.2305 0.22656 -2.4648 0.34375 -3.7031 0.34375 c -4.3125 0 -7.6875 -1.1094 -10.125 -3.3281 s -3.6562 -5.2969 -3.6562 -9.2344 c 0 -3.9453 1.2188 -7.0234 3.6562 -9.2344 c 2.4375 -2.2188 5.8125 -3.3281 10.125 -3.3281 c 1.25 0 2.4844 0.10938 3.7031 0.32812 s 2.4297 0.55469 3.6406 1 z" stroke-linecap="round"/>
      </g>
      <g transform="matrix(1.33 0 0 1.33 83.09 439.08)">
        <path style="stroke: none; stroke-width: 1; stroke-dasharray: none; stroke-linecap: butt; stroke-dashoffset: 0; stroke-linejoin: miter; stroke-miterlimit: 4; fill: rgb(0,0,0); fill-rule: nonzero; opacity: 1;" transform=" translate(-15.02, 11.94)" d="m 15.062 -19.031 c -1.6992 0 -2.9961 0.60938 -3.8906 1.8281 c -0.88672 1.2188 -1.3281 2.9766 -1.3281 5.2656 c 0 2.293 0.44141 4.0469 1.3281 5.2656 c 0.89453 1.2188 2.1914 1.8281 3.8906 1.8281 c 1.6641 0 2.9375 -0.60938 3.8125 -1.8281 c 0.88281 -1.2188 1.3281 -2.9727 1.3281 -5.2656 c 0 -2.2891 -0.44531 -4.0469 -1.3281 -5.2656 c -0.875 -1.2188 -2.1484 -1.8281 -3.8125 -1.8281 z m 0 -5.4688 c 4.1133 0 7.3281 1.1094 9.6406 3.3281 s 3.4688 5.2969 3.4688 9.2344 c 0 3.9297 -1.1562 7.0078 -3.4688 9.2344 c -2.3125 2.2188 -5.5273 3.3281 -9.6406 3.3281 c -4.1367 0 -7.3711 -1.1094 -9.7031 -3.3281 c -2.3242 -2.2266 -3.4844 -5.3047 -3.4844 -9.2344 c 0 -3.9375 1.1602 -7.0156 3.4844 -9.2344 c 2.332 -2.2188 5.5664 -3.3281 9.7031 -3.3281 z" stroke-linecap="round"/>
      </g>
      <g transform="matrix(1.33 0 0 1.33 124.07 438.67)">
        <path style="stroke: none; stroke-width: 1; stroke-dasharray: none; stroke-linecap: butt; stroke-dashoffset: 0; stroke-linejoin: miter; stroke-miterlimit: 4; fill: rgb(0,0,0); fill-rule: nonzero; opacity: 1;" transform=" translate(-15.7, 12.25)" d="m 27.734 -14.562 v 14.562 h -7.7031 v -11.156 c 0 -2.0625 -0.046875 -3.4844 -0.14062 -4.2656 c -0.085937 -0.78125 -0.24219 -1.3594 -0.46875 -1.7344 c -0.30469 -0.5 -0.71094 -0.88281 -1.2188 -1.1562 c -0.51172 -0.28125 -1.0938 -0.42188 -1.75 -0.42188 c -1.5938 0 -2.8516 0.61719 -3.7656 1.8438 c -0.90625 1.2305 -1.3594 2.9375 -1.3594 5.125 v 11.766 h -7.6562 v -23.922 h 7.6562 v 3.5 c 1.1445 -1.3945 2.3633 -2.4219 3.6562 -3.0781 c 1.3008 -0.66406 2.7383 -1 4.3125 -1 c 2.7578 0 4.8516 0.85156 6.2812 2.5469 c 1.4375 1.6875 2.1562 4.1523 2.1562 7.3906 z" stroke-linecap="round"/>
      </g>
      <g transform="matrix(1.33 0 0 1.33 154.66 432.84)">
        <path style="stroke: none; stroke-width: 1; stroke-dasharray: none; stroke-linecap: butt; stroke-dashoffset: 0; stroke-linejoin: miter; stroke-miterlimit: 4; fill: rgb(0,0,0); fill-rule: nonzero; opacity: 1;" transform=" translate(-7.5, 16.62)" d="m 3.6719 -23.922 h 7.6562 v 23.922 h -7.6562 z m 0 -9.3125 h 7.6562 v 6.2344 h -7.6562 z" stroke-linecap="round"/>
      </g>
      <g transform="matrix(1.33 0 0 1.33 184.4 444.76)">
        <path style="stroke: none; stroke-width: 1; stroke-dasharray: none; stroke-linecap: butt; stroke-dashoffset: 0; stroke-linejoin: miter; stroke-miterlimit: 4; fill: rgb(0,0,0); fill-rule: nonzero; opacity: 1;" transform=" translate(-14.8, 7.68)" d="m 14.906 -18.953 c -1.625 0 -2.8711 0.60156 -3.7344 1.7969 c -0.85547 1.1992 -1.2812 2.9375 -1.2812 5.2188 c 0 2.2734 0.42578 4.0078 1.2812 5.2031 c 0.86328 1.1992 2.1094 1.7969 3.7344 1.7969 c 1.6445 0 2.8945 -0.59766 3.75 -1.7969 c 0.86328 -1.1953 1.2969 -2.9297 1.2969 -5.2031 c 0 -2.2812 -0.43359 -4.0195 -1.2969 -5.2188 c -0.85547 -1.1953 -2.1055 -1.7969 -3.75 -1.7969 z m 5.0469 15.5 c -1.0547 1.4062 -2.2148 2.4375 -3.4844 3.0938 c -1.2734 0.65625 -2.7422 0.98438 -4.4062 0.98438 c -2.9492 0 -5.3711 -1.1719 -7.2656 -3.5156 c -1.8867 -2.3438 -2.8281 -5.3594 -2.8281 -9.0469 s 0.94141 -6.6914 2.8281 -9.0156 c 1.8945 -2.332 4.3164 -3.5 7.2656 -3.5 c 1.6641 0 3.1328 0.32812 4.4062 0.98438 c 1.2695 0.64844 2.4297 1.6797 3.4844 3.0938 v -3.5469 h 7.6875 v 33.016 h -7.6875 z" stroke-linecap="round"/>
      </g>
      <g transform="matrix(1.33 0 0 1.33 227.01 439.47)">
        <path style="stroke: none; stroke-width: 1; stroke-dasharray: none; stroke-linecap: butt; stroke-dashoffset: 0; stroke-linejoin: miter; stroke-miterlimit: 4; fill: rgb(0,0,0); fill-rule: nonzero; opacity: 1;" transform=" translate(-15.45, 11.65)" d="m 3.4219 -9.3125 v -14.609 h 7.6875 v 2.3906 c 0 1.293 -0.011719 2.918 -0.03125 4.875 c -0.011719 1.9609 -0.015625 3.2656 -0.015625 3.9219 c 0 1.9297 0.046875 3.3125 0.14062 4.1562 c 0.10156 0.84375 0.28125 1.4609 0.53125 1.8438 c 0.3125 0.5 0.71875 0.88672 1.2188 1.1562 c 0.50781 0.27344 1.0938 0.40625 1.75 0.40625 c 1.5938 0 2.8438 -0.60938 3.75 -1.8281 c 0.91406 -1.2266 1.375 -2.9297 1.375 -5.1094 v -11.812 h 7.6406 v 23.922 h -7.6406 v -3.4531 c -1.1562 1.3867 -2.3828 2.4141 -3.6719 3.0781 c -1.2812 0.66406 -2.6992 1 -4.25 1 c -2.7734 0 -4.8828 -0.84766 -6.3281 -2.5469 c -1.4375 -1.6953 -2.1562 -4.1602 -2.1562 -7.3906 z" stroke-linecap="round"/>
      </g>
    </g>
  </g>
</svg>